<svg id="visual" viewBox="0 0 1920 1080" width="1920" height="1080" xmlns="http://www.w3.org/2000/svg" xmlns:xlink="http://www.w3.org/1999/xlink" version="1.1"><rect x="0" y="0" width="1920" height="1080" fill="#ffffff"></rect><defs><linearGradient id="grad1_0" x1="43.8%" y1="0%" x2="100%" y2="100%"><stop offset="14.444444444444446%" stop-color="#fdc202" stop-opacity="1"></stop><stop offset="85.55555555555554%" stop-color="#fdc202" stop-opacity="1"></stop></linearGradient></defs><defs><linearGradient id="grad1_1" x1="43.8%" y1="0%" x2="100%" y2="100%"><stop offset="14.444444444444446%" stop-color="#fdc202" stop-opacity="1"></stop><stop offset="85.55555555555554%" stop-color="#ffce51" stop-opacity="1"></stop></linearGradient></defs><defs><linearGradient id="grad1_2" x1="43.8%" y1="0%" x2="100%" y2="100%"><stop offset="14.444444444444446%" stop-color="#ffda7f" stop-opacity="1"></stop><stop offset="85.55555555555554%" stop-color="#ffce51" stop-opacity="1"></stop></linearGradient></defs><defs><linearGradient id="grad1_3" x1="43.8%" y1="0%" x2="100%" y2="100%"><stop offset="14.444444444444446%" stop-color="#ffda7f" stop-opacity="1"></stop><stop offset="85.55555555555554%" stop-color="#ffe6aa" stop-opacity="1"></stop></linearGradient></defs><defs><linearGradient id="grad1_4" x1="43.8%" y1="0%" x2="100%" y2="100%"><stop offset="14.444444444444446%" stop-color="#fff2d4" stop-opacity="1"></stop><stop offset="85.55555555555554%" stop-color="#ffe6aa" stop-opacity="1"></stop></linearGradient></defs><defs><linearGradient id="grad1_5" x1="43.8%" y1="0%" x2="100%" y2="100%"><stop offset="14.444444444444446%" stop-color="#fff2d4" stop-opacity="1"></stop><stop offset="85.55555555555554%" stop-color="#ffffff" stop-opacity="1"></stop></linearGradient></defs><defs><linearGradient id="grad2_0" x1="0%" y1="0%" x2="56.3%" y2="100%"><stop offset="14.444444444444446%" stop-color="#fdc202" stop-opacity="1"></stop><stop offset="85.55555555555554%" stop-color="#fdc202" stop-opacity="1"></stop></linearGradient></defs><defs><linearGradient id="grad2_1" x1="0%" y1="0%" x2="56.3%" y2="100%"><stop offset="14.444444444444446%" stop-color="#ffce51" stop-opacity="1"></stop><stop offset="85.55555555555554%" stop-color="#fdc202" stop-opacity="1"></stop></linearGradient></defs><defs><linearGradient id="grad2_2" x1="0%" y1="0%" x2="56.3%" y2="100%"><stop offset="14.444444444444446%" stop-color="#ffce51" stop-opacity="1"></stop><stop offset="85.55555555555554%" stop-color="#ffda7f" stop-opacity="1"></stop></linearGradient></defs><defs><linearGradient id="grad2_3" x1="0%" y1="0%" x2="56.3%" y2="100%"><stop offset="14.444444444444446%" stop-color="#ffe6aa" stop-opacity="1"></stop><stop offset="85.55555555555554%" stop-color="#ffda7f" stop-opacity="1"></stop></linearGradient></defs><defs><linearGradient id="grad2_4" x1="0%" y1="0%" x2="56.3%" y2="100%"><stop offset="14.444444444444446%" stop-color="#ffe6aa" stop-opacity="1"></stop><stop offset="85.55555555555554%" stop-color="#fff2d4" stop-opacity="1"></stop></linearGradient></defs><defs><linearGradient id="grad2_5" x1="0%" y1="0%" x2="56.3%" y2="100%"><stop offset="14.444444444444446%" stop-color="#ffffff" stop-opacity="1"></stop><stop offset="85.55555555555554%" stop-color="#fff2d4" stop-opacity="1"></stop></linearGradient></defs><g transform="translate(1920, 0)"><path d="M0 918C-198.6 915.9 -397.1 913.9 -459 795C-520.9 676.1 -446 440.5 -499.7 288.5C-553.4 136.5 -735.7 68.3 -918 0L0 0Z" fill="#fff9ea"></path><path d="M0 765C-165.5 763.3 -331 761.6 -382.5 662.5C-434 563.5 -371.7 367.1 -416.4 240.4C-461.2 113.8 -613.1 56.9 -765 0L0 0Z" fill="#ffecbf"></path><path d="M0 612C-132.4 610.6 -264.8 609.3 -306 530C-347.2 450.8 -297.3 293.6 -333.1 192.3C-368.9 91 -490.5 45.5 -612 0L0 0Z" fill="#ffe095"></path><path d="M0 459C-99.3 458 -198.6 456.9 -229.5 397.5C-260.4 338.1 -223 220.2 -249.8 144.3C-276.7 68.3 -367.9 34.1 -459 0L0 0Z" fill="#ffd469"></path><path d="M0 306C-66.2 305.3 -132.4 304.6 -153 265C-173.6 225.4 -148.7 146.8 -166.6 96.2C-184.5 45.5 -245.2 22.8 -306 0L0 0Z" fill="#ffc836"></path><path d="M0 153C-33.1 152.7 -66.2 152.3 -76.5 132.5C-86.8 112.7 -74.3 73.4 -83.3 48.1C-92.2 22.8 -122.6 11.4 -153 0L0 0Z" fill="#fdc202"></path></g><g transform="translate(0, 1080)"><path d="M0 -918C117.3 -820.7 234.7 -723.4 380.5 -659C526.3 -594.7 700.7 -563.3 795 -459C889.3 -354.7 903.7 -177.3 918 0L0 0Z" fill="#fff9ea"></path><path d="M0 -765C97.8 -683.9 195.6 -602.8 317.1 -549.2C438.6 -495.6 583.9 -469.5 662.5 -382.5C741.1 -295.5 753.1 -147.8 765 0L0 0Z" fill="#ffecbf"></path><path d="M0 -612C78.2 -547.1 156.4 -482.3 253.7 -439.4C350.9 -396.5 467.1 -375.6 530 -306C592.9 -236.4 602.4 -118.2 612 0L0 0Z" fill="#ffe095"></path><path d="M0 -459C58.7 -410.3 117.3 -361.7 190.2 -329.5C263.2 -297.4 350.3 -281.7 397.5 -229.5C444.7 -177.3 451.8 -88.7 459 0L0 0Z" fill="#ffd469"></path><path d="M0 -306C39.1 -273.6 78.2 -241.1 126.8 -219.7C175.4 -198.2 233.6 -187.8 265 -153C296.4 -118.2 301.2 -59.1 306 0L0 0Z" fill="#ffc836"></path><path d="M0 -153C19.6 -136.8 39.1 -120.6 63.4 -109.8C87.7 -99.1 116.8 -93.9 132.5 -76.5C148.2 -59.1 150.6 -29.6 153 0L0 0Z" fill="#fdc202"></path></g></svg>