<svg id="visual" viewBox="0 0 1920 1080" width="1920" height="1080" xmlns="http://www.w3.org/2000/svg" xmlns:xlink="http://www.w3.org/1999/xlink" version="1.1"><rect x="0" y="0" width="1920" height="1080" fill="#001122"></rect><defs><linearGradient id="grad1_0" x1="43.8%" y1="0%" x2="100%" y2="100%"><stop offset="14.444444444444446%" stop-color="#6e83b7" stop-opacity="1"></stop><stop offset="85.55555555555554%" stop-color="#6e83b7" stop-opacity="1"></stop></linearGradient></defs><defs><linearGradient id="grad1_1" x1="43.8%" y1="0%" x2="100%" y2="100%"><stop offset="14.444444444444446%" stop-color="#6e83b7" stop-opacity="1"></stop><stop offset="85.55555555555554%" stop-color="#556a96" stop-opacity="1"></stop></linearGradient></defs><defs><linearGradient id="grad1_2" x1="43.8%" y1="0%" x2="100%" y2="100%"><stop offset="14.444444444444446%" stop-color="#3d5377" stop-opacity="1"></stop><stop offset="85.55555555555554%" stop-color="#556a96" stop-opacity="1"></stop></linearGradient></defs><defs><linearGradient id="grad1_3" x1="43.8%" y1="0%" x2="100%" y2="100%"><stop offset="14.444444444444446%" stop-color="#3d5377" stop-opacity="1"></stop><stop offset="85.55555555555554%" stop-color="#273c59" stop-opacity="1"></stop></linearGradient></defs><defs><linearGradient id="grad1_4" x1="43.8%" y1="0%" x2="100%" y2="100%"><stop offset="14.444444444444446%" stop-color="#13263c" stop-opacity="1"></stop><stop offset="85.55555555555554%" stop-color="#273c59" stop-opacity="1"></stop></linearGradient></defs><defs><linearGradient id="grad1_5" x1="43.8%" y1="0%" x2="100%" y2="100%"><stop offset="14.444444444444446%" stop-color="#13263c" stop-opacity="1"></stop><stop offset="85.55555555555554%" stop-color="#001122" stop-opacity="1"></stop></linearGradient></defs><defs><linearGradient id="grad2_0" x1="0%" y1="0%" x2="56.3%" y2="100%"><stop offset="14.444444444444446%" stop-color="#6e83b7" stop-opacity="1"></stop><stop offset="85.55555555555554%" stop-color="#6e83b7" stop-opacity="1"></stop></linearGradient></defs><defs><linearGradient id="grad2_1" x1="0%" y1="0%" x2="56.3%" y2="100%"><stop offset="14.444444444444446%" stop-color="#556a96" stop-opacity="1"></stop><stop offset="85.55555555555554%" stop-color="#6e83b7" stop-opacity="1"></stop></linearGradient></defs><defs><linearGradient id="grad2_2" x1="0%" y1="0%" x2="56.3%" y2="100%"><stop offset="14.444444444444446%" stop-color="#556a96" stop-opacity="1"></stop><stop offset="85.55555555555554%" stop-color="#3d5377" stop-opacity="1"></stop></linearGradient></defs><defs><linearGradient id="grad2_3" x1="0%" y1="0%" x2="56.3%" y2="100%"><stop offset="14.444444444444446%" stop-color="#273c59" stop-opacity="1"></stop><stop offset="85.55555555555554%" stop-color="#3d5377" stop-opacity="1"></stop></linearGradient></defs><defs><linearGradient id="grad2_4" x1="0%" y1="0%" x2="56.3%" y2="100%"><stop offset="14.444444444444446%" stop-color="#273c59" stop-opacity="1"></stop><stop offset="85.55555555555554%" stop-color="#13263c" stop-opacity="1"></stop></linearGradient></defs><defs><linearGradient id="grad2_5" x1="0%" y1="0%" x2="56.3%" y2="100%"><stop offset="14.444444444444446%" stop-color="#001122" stop-opacity="1"></stop><stop offset="85.55555555555554%" stop-color="#13263c" stop-opacity="1"></stop></linearGradient></defs><g transform="translate(1920, 0)"><path d="M0 918C-160 893.7 -320 869.3 -459 795C-598 720.7 -716 596.3 -788.9 455.5C-861.9 314.7 -890 157.3 -918 0L0 0Z" fill="#091c2f"></path><path d="M0 765C-133.3 744.7 -266.7 724.5 -382.5 662.5C-498.3 600.6 -596.6 496.9 -657.5 379.6C-718.3 262.2 -741.6 131.1 -765 0L0 0Z" fill="#1d314a"></path><path d="M0 612C-106.7 595.8 -213.3 579.6 -306 530C-398.7 480.5 -477.3 397.6 -526 303.7C-574.6 209.8 -593.3 104.9 -612 0L0 0Z" fill="#324768"></path><path d="M0 459C-80 446.8 -160 434.7 -229.5 397.5C-299 360.3 -358 298.2 -394.5 227.8C-431 157.3 -445 78.7 -459 0L0 0Z" fill="#495e87"></path><path d="M0 306C-53.3 297.9 -106.7 289.8 -153 265C-199.3 240.2 -238.7 198.8 -263 151.8C-287.3 104.9 -296.7 52.4 -306 0L0 0Z" fill="#6177a7"></path><path d="M0 153C-26.7 148.9 -53.3 144.9 -76.5 132.5C-99.7 120.1 -119.3 99.4 -131.5 75.9C-143.7 52.4 -148.3 26.2 -153 0L0 0Z" fill="#6e83b7"></path></g><g transform="translate(0, 1080)"><path d="M0 -918C168.6 -898.6 337.1 -879.2 459 -795C580.9 -710.8 656.1 -561.8 724.9 -418.5C793.6 -275.2 855.8 -137.6 918 0L0 0Z" fill="#091c2f"></path><path d="M0 -765C140.5 -748.8 280.9 -732.7 382.5 -662.5C484.1 -592.3 546.8 -468.2 604.1 -348.8C661.3 -229.3 713.2 -114.7 765 0L0 0Z" fill="#1d314a"></path><path d="M0 -612C112.4 -599.1 224.7 -586.1 306 -530C387.3 -473.9 437.4 -374.5 483.2 -279C529.1 -183.5 570.5 -91.7 612 0L0 0Z" fill="#324768"></path><path d="M0 -459C84.3 -449.3 168.6 -439.6 229.5 -397.5C290.4 -355.4 328.1 -280.9 362.4 -209.3C396.8 -137.6 427.9 -68.8 459 0L0 0Z" fill="#495e87"></path><path d="M0 -306C56.2 -299.5 112.4 -293.1 153 -265C193.6 -236.9 218.7 -187.3 241.6 -139.5C264.5 -91.7 285.3 -45.9 306 0L0 0Z" fill="#6177a7"></path><path d="M0 -153C28.1 -149.8 56.2 -146.5 76.5 -132.5C96.8 -118.5 109.4 -93.6 120.8 -69.8C132.3 -45.9 142.6 -22.9 153 0L0 0Z" fill="#6e83b7"></path></g></svg>