<svg id="visual" viewBox="0 0 1920 1080" width="1920" height="1080" xmlns="http://www.w3.org/2000/svg" xmlns:xlink="http://www.w3.org/1999/xlink" version="1.1"><rect x="0" y="0" width="1920" height="1080" fill="#fe672e"></rect><defs><linearGradient id="grad1_0" x1="43.8%" y1="0%" x2="100%" y2="100%"><stop offset="14.444444444444446%" stop-color="#ffffff" stop-opacity="1"></stop><stop offset="85.55555555555554%" stop-color="#ffffff" stop-opacity="1"></stop></linearGradient></defs><defs><linearGradient id="grad1_1" x1="43.8%" y1="0%" x2="100%" y2="100%"><stop offset="14.444444444444446%" stop-color="#ffffff" stop-opacity="1"></stop><stop offset="85.55555555555554%" stop-color="#ffe2d4" stop-opacity="1"></stop></linearGradient></defs><defs><linearGradient id="grad1_2" x1="43.8%" y1="0%" x2="100%" y2="100%"><stop offset="14.444444444444446%" stop-color="#ffc4a9" stop-opacity="1"></stop><stop offset="85.55555555555554%" stop-color="#ffe2d4" stop-opacity="1"></stop></linearGradient></defs><defs><linearGradient id="grad1_3" x1="43.8%" y1="0%" x2="100%" y2="100%"><stop offset="14.444444444444446%" stop-color="#ffc4a9" stop-opacity="1"></stop><stop offset="85.55555555555554%" stop-color="#ffa680" stop-opacity="1"></stop></linearGradient></defs><defs><linearGradient id="grad1_4" x1="43.8%" y1="0%" x2="100%" y2="100%"><stop offset="14.444444444444446%" stop-color="#ff8858" stop-opacity="1"></stop><stop offset="85.55555555555554%" stop-color="#ffa680" stop-opacity="1"></stop></linearGradient></defs><defs><linearGradient id="grad1_5" x1="43.8%" y1="0%" x2="100%" y2="100%"><stop offset="14.444444444444446%" stop-color="#ff8858" stop-opacity="1"></stop><stop offset="85.55555555555554%" stop-color="#fe672e" stop-opacity="1"></stop></linearGradient></defs><defs><linearGradient id="grad2_0" x1="0%" y1="0%" x2="56.3%" y2="100%"><stop offset="14.444444444444446%" stop-color="#ffffff" stop-opacity="1"></stop><stop offset="85.55555555555554%" stop-color="#ffffff" stop-opacity="1"></stop></linearGradient></defs><defs><linearGradient id="grad2_1" x1="0%" y1="0%" x2="56.3%" y2="100%"><stop offset="14.444444444444446%" stop-color="#ffe2d4" stop-opacity="1"></stop><stop offset="85.55555555555554%" stop-color="#ffffff" stop-opacity="1"></stop></linearGradient></defs><defs><linearGradient id="grad2_2" x1="0%" y1="0%" x2="56.3%" y2="100%"><stop offset="14.444444444444446%" stop-color="#ffe2d4" stop-opacity="1"></stop><stop offset="85.55555555555554%" stop-color="#ffc4a9" stop-opacity="1"></stop></linearGradient></defs><defs><linearGradient id="grad2_3" x1="0%" y1="0%" x2="56.3%" y2="100%"><stop offset="14.444444444444446%" stop-color="#ffa680" stop-opacity="1"></stop><stop offset="85.55555555555554%" stop-color="#ffc4a9" stop-opacity="1"></stop></linearGradient></defs><defs><linearGradient id="grad2_4" x1="0%" y1="0%" x2="56.3%" y2="100%"><stop offset="14.444444444444446%" stop-color="#ffa680" stop-opacity="1"></stop><stop offset="85.55555555555554%" stop-color="#ff8858" stop-opacity="1"></stop></linearGradient></defs><defs><linearGradient id="grad2_5" x1="0%" y1="0%" x2="56.3%" y2="100%"><stop offset="14.444444444444446%" stop-color="#fe672e" stop-opacity="1"></stop><stop offset="85.55555555555554%" stop-color="#ff8858" stop-opacity="1"></stop></linearGradient></defs><g transform="translate(1920, 0)"><path d="M0 756C-92.4 725.8 -184.7 695.5 -273.2 659.6C-361.7 623.8 -446.3 582.2 -521.1 521.1C-595.9 460.1 -660.9 379.4 -698.5 289.3C-736 199.2 -746 99.6 -756 0L0 0Z" fill="#ff7843"></path><path d="M0 630C-77 604.8 -154 579.6 -227.7 549.7C-301.4 519.8 -371.9 485.2 -434.3 434.3C-496.6 383.4 -550.8 316.2 -582 241.1C-613.3 166 -621.7 83 -630 0L0 0Z" fill="#ff976c"></path><path d="M0 504C-61.6 483.8 -123.2 463.7 -182.2 439.8C-241.2 415.8 -297.6 388.1 -347.4 347.4C-397.3 306.7 -440.6 252.9 -465.6 192.9C-490.6 132.8 -497.3 66.4 -504 0L0 0Z" fill="#ffb594"></path><path d="M0 378C-46.2 362.9 -92.4 347.8 -136.6 329.8C-180.9 311.9 -223.2 291.1 -260.6 260.6C-298 230 -330.5 189.7 -349.2 144.7C-368 99.6 -373 49.8 -378 0L0 0Z" fill="#ffd3be"></path><path d="M0 252C-30.8 241.9 -61.6 231.8 -91.1 219.9C-120.6 207.9 -148.8 194.1 -173.7 173.7C-198.6 153.4 -220.3 126.5 -232.8 96.4C-245.3 66.4 -248.7 33.2 -252 0L0 0Z" fill="#fff0e9"></path><path d="M0 126C-15.4 121 -30.8 115.9 -45.5 109.9C-60.3 104 -74.4 97 -86.9 86.9C-99.3 76.7 -110.2 63.2 -116.4 48.2C-122.7 33.2 -124.3 16.6 -126 0L0 0Z" fill="#ffffff"></path></g><g transform="translate(0, 1080)"><path d="M0 -756C109.4 -757.7 218.9 -759.4 289.3 -698.5C359.8 -637.5 391.2 -514 429.9 -429.9C468.6 -345.8 514.5 -301.2 570 -236.1C625.6 -171 690.8 -85.5 756 0L0 0Z" fill="#ff7843"></path><path d="M0 -630C91.2 -631.4 182.4 -632.8 241.1 -582C299.8 -531.3 326 -428.3 358.3 -358.3C390.5 -288.2 428.7 -251 475 -196.8C521.3 -142.5 575.7 -71.3 630 0L0 0Z" fill="#ff976c"></path><path d="M0 -504C73 -505.1 145.9 -506.2 192.9 -465.6C239.8 -425 260.8 -342.7 286.6 -286.6C312.4 -230.6 343 -200.8 380 -157.4C417.1 -114 460.5 -57 504 0L0 0Z" fill="#ffb594"></path><path d="M0 -378C54.7 -378.8 109.4 -379.7 144.7 -349.2C179.9 -318.8 195.6 -257 215 -215C234.3 -172.9 257.2 -150.6 285 -118.1C312.8 -85.5 345.4 -42.8 378 0L0 0Z" fill="#ffd3be"></path><path d="M0 -252C36.5 -252.6 73 -253.1 96.4 -232.8C119.9 -212.5 130.4 -171.3 143.3 -143.3C156.2 -115.3 171.5 -100.4 190 -78.7C208.5 -57 230.3 -28.5 252 0L0 0Z" fill="#fff0e9"></path><path d="M0 -126C18.2 -126.3 36.5 -126.6 48.2 -116.4C60 -106.3 65.2 -85.7 71.7 -71.7C78.1 -57.6 85.7 -50.2 95 -39.4C104.3 -28.5 115.1 -14.3 126 0L0 0Z" fill="#ffffff"></path></g></svg>